<?xml version="1.0" encoding="utf-8"?>
<!-- Generator: Adobe Illustrator 19.0.0, SVG Export Plug-In . SVG Version: 6.00 Build 0)  -->
<svg version="1.1" id="Camada_1" xmlns="http://www.w3.org/2000/svg" xmlns:xlink="http://www.w3.org/1999/xlink" x="0px" y="0px"
	 viewBox="0 0 334 420" style="enable-background:new 0 0 334 420;" xml:space="preserve">
<style type="text/css">
	.st0{fill:#EF7B28;}
</style>
<path id="XMLID_3_" class="st0" d="M162.956,0.734c-9.2,0.9-21.5,5-29.5,9.6c-9.8,5.7-21.7,18.1-26.7,27.8
	c-10.4,20.2-12.6,44.8-5.7,65.4c4.2,12.7,9.8,21.5,20.9,32.6c12,12.1,21.1,18.5,38.7,27.1c34,16.5,44.9,23.4,59.8,38.4
	c19.4,19.4,27.2,38.9,24.9,62c-2,20.4-8.6,34-23.2,47.6c-17.4,16.2-41.1,24.5-66.1,23.1c-5.6-0.3-12.8-1.3-16.1-2.2
	c-18.7-4.9-34.5-19.5-40.5-37.5c-4.5-13.3-3.4-30,2.7-41.2c3.2-5.9,12.3-14.7,18.3-17.8c24.2-12.4,51.5,0.3,53.7,24.9
	c1.4,14.9-8.9,27.3-22.6,27.5l-5.7,0.1l-3.1,11.5c-1.7,6.3-3,11.6-2.8,11.8c1,1.1,15.9,1.3,20.8,0.3c22.8-4.8,37.7-24,37.7-48.6
	c0-25.4-15.4-46.3-39.9-54.2c-7.6-2.4-24.5-2.8-33.3-0.9c-14.8,3.3-30,12.7-38.4,23.9c-9.8,13-13.4,23.8-14.1,41.7
	c-0.6,14.1,0.7,22.3,5.3,33.6c10.5,26.4,31.5,43.4,60.9,49.5c10.1,2.1,30.9,2.5,41.2,0.9c36.9-6,68.6-29,81.4-59.1
	c6.2-14.5,8.2-24.7,8.3-41.9c0-13.1-0.4-16.8-2.3-24c-9.6-36-38.5-64.9-86.6-86.7c-46.1-20.9-65.2-47.8-58-81.6
	c2-9.3,6.8-18.1,14-25.2c9.9-9.8,21.1-14.5,34.6-14.5c18.7,0,34,11.6,38.5,28.9c2.9,11.6,0.4,21.2-7.7,29.3c-4.5,4.5-6.8,6-11.4,7.3
	c-3.5,1.1-7.2,1.5-9.5,1.1l-3.8-0.6l-3.1,11.6c-1.8,6.4-3,11.8-2.8,12.1c0.3,0.2,3.9,0.7,8.1,1c25.9,2,48.1-14.3,54.1-39.8
	c7.6-32.5-13.2-66.1-45.5-73.3C179.556,0.334,171.256-0.166,162.956,0.734z"/>
<path id="XMLID_2_" class="st0" d="M20.156,313.834l-19.9,5.1l0.7,3.6c1.1,6,8.8,24.2,14.1,33c5.7,9.6,18,24.7,25.1,30.7
	c20.1,17,43.3,28,67.5,31.9c11.4,1.8,104.3,2.2,116.1,0.4c51-7.5,91.9-42.1,107.8-90.9c1.5-4.7,2.5-8.6,2.1-8.7
	c-2.5-0.9-41.5-10.3-41.7-10.1c-0.1,0.2-1,2.8-2,5.8c-7.9,24.5-29,46.4-53.9,56.1c-14.4,5.6-20.6,6.1-73.4,5.7
	c-44.9-0.4-48.1-0.5-55.3-2.5c-29-8.1-53-30.2-62.7-57.5c-1.5-4.3-3.1-7.8-3.7-7.7C40.456,308.734,31.056,311.134,20.156,313.834z"
	/>
</svg>
