<?xml version="1.0" encoding="utf-8"?>
<!-- Generator: Adobe Illustrator 19.0.0, SVG Export Plug-In . SVG Version: 6.00 Build 0)  -->
<svg version="1.1" id="Camada_1" xmlns="http://www.w3.org/2000/svg" xmlns:xlink="http://www.w3.org/1999/xlink" x="0px" y="0px"
	 viewBox="741 -184 1815 789" style="enable-background:new 741 -184 1815 789;" xml:space="preserve">
<style type="text/css">
	.st0{fill:#FFFFFF;}
	.st1{fill:#692603;}
</style>
<g transform="translate(0.000000,789.000000) scale(0.100000,-0.100000)">
	<path class="st0" d="M10997.75,9516.555c-92-9-215-50-295-96c-98-57-217-181-267-278c-104-202-126-448-57-654
		c42-127,98-215,209-326c120-121,211-185,387-271c340-165,449-234,598-384c194-194,272-389,249-620c-20-204-86-340-232-476
		c-174-162-411-245-661-231c-56,3-128,13-161,22c-187,49-345,195-405,375c-45,133-34,300,27,412c32,59,123,147,183,178
		c242,124,515-3,537-249c14-149-89-273-226-275l-57-1l-31-115c-17-63-30-116-28-118c10-11,159-13,208-3c228,48,377,240,377,486
		c0,254-154,463-399,542c-76,24-245,28-333,9c-148-33-300-127-384-239c-98-130-134-238-141-417c-6-141,7-223,53-336
		c105-264,315-434,609-495c101-21,309-25,412-9c369,60,686,290,814,591c62,145,82,247,83,419c0,131-4,168-23,240
		c-96,360-385,649-866,867c-461,209-652,478-580,816c20,93,68,181,140,252c99,98,211,145,346,145c187,0,340-116,385-289
		c29-116,4-212-77-293c-45-45-68-60-114-73c-35-11-72-15-95-11l-38,6l-31-116c-18-64-30-118-28-121c3-2,39-7,81-10
		c259-20,481,143,541,398c76,325-132,661-455,733C11163.75,9520.555,11080.75,9525.555,10997.75,9516.555z"/>
	<path class="st1" d="M21234.75,9203.555c-54-125-128-172-256-164c-63,4-91,13-197,62c-270,126-283,130-394,131c-95,0-105-2-169-34
		c-136-67-238-206-280-383l-6-28h63h64l39,77c46,92,75,113,168,120c84,7,141-11,324-100c173-85,237-102,357-94c105,6,170,35,253,112
		c87,81,132,165,179,338c4,15-3,17-59,17h-63L21234.75,9203.555z"/>
	<path class="st1" d="M23462.75,8566.555c-639-82-1105-443-1286-997c-19-58-33-106-31-108s722-3,1600-2l1596,3l-39,116
		c-47,141-88,225-171,350c-127,189-309,350-518,458c-187,95-355,146-579,176C23912.75,8578.555,23575.75,8581.555,23462.75,8566.555
		z"/>
	<path class="st1" d="M20633.75,8505.555c-69-179-1078-2439-1299-2910c-78-166-90-148,95-148h158l53,168c58,180,201,569,306,827
		c59,147,66,161,93,166c15,4,255,7,533,7s518-3,533-7c27-6,36-25,154-311c149-364,249-620,292-752l33-98h229c126,0,229,2,229,5
		s-22,49-49,103c-121,242-700,1592-1154,2692l-114,275l-41,3C20648.75,8528.555,20641.75,8525.555,20633.75,8505.555z
		 M20826.75,7372.555c130-296,236-544,236-551c0-17-377-27-696-18c-238,6-265,9-261,23c13,51,472,1100,478,1094
		C20587.75,7915.555,20696.75,7669.555,20826.75,7372.555z"/>
	<path class="st1" d="M7592.75,8436.555c0-19,7-182,15-364c20-450,20-1800,0-2240c-8-176-15-336-15-355v-35l792,3l793,2v120v120
		l-25-4c-143-29-449-46-835-49l-320-2l-8,84c-4,46-6,338-5,650l3,566l335-2c311-3,619-16,699-30l34-6l-7,79c-3,44-2,103,3,133l8,54
		l-96-7c-302-20-493-27-721-29l-255-2l-3,355c-3,328,10,776,23,789c9,8,585-17,879-39c148-11,270-19,271-18c1,2-1,32-5,68
		s-4,92,0,125s6,61,5,63c-1,1-128-3-281-9c-271-11-1001-7-1196,7l-88,7V8436.555z"/>
	<path class="st1" d="M12460.75,8435.555c9-43,9-164,0-207l-8-33l53,6c191,23,872,54,886,41c12-13,22-850,17-1500
		c-4-614-12-922-31-1207l-6-88h216h216l-6,93c-19,293-26,593-31,1187c-5,624,5,1502,18,1515s695-19,885-41l53-6l-8,33
		c-9,45-9,154,1,202l8,37l-283-7c-364-10-1341-10-1705,0l-283,7L12460.75,8435.555z"/>
	<path class="st1" d="M15117.75,8439.555c30-187,42-2022,17-2627c-7-176-15-330-18-342l-4-23h792h793l1,120v121l-25-6
		c-135-28-449-46-836-48l-320-2l-3,654l-2,654l352-7c331-7,597-19,678-31l35-6v131c0,123-1,130-20,130c-11,0-130-7-265-15
		s-364-16-510-18l-265-2l1,563c0,420,3,565,12,574c18,18,575-6,1077-47l70-5v130v130l-185-8c-240-9-930-9-1182,0l-197,8
		L15117.75,8439.555z"/>
	<path class="st1" d="M16912.75,8457.555c0-5,61-157,136-337c356-859,706-1721,1053-2598l27-70h148h148l33,85
		c361,918,694,1717,1081,2590c80,182,145,333,143,335s-29-1-59-7c-51-10-190-5-235,7c-18,5-27-15-94-207c-86-250-379-1041-523-1413
		c-100-258-364-899-392-952l-14-28l-22,50c-100,229-477,1171-631,1574c-86,224-233,629-315,869l-39,112l-60-7c-75-10-263-10-332-1
		C16934.75,8463.555,16912.75,8462.555,16912.75,8457.555z"/>
	<path class="st0" d="M22115.75,7260.555c-10-35-10-492-1-515c7-17,94-18,1627-18h1620l8,38c10,48,10,436,0,485l-8,37h-1619h-1620
		L22115.75,7260.555z"/>
	<path class="st1" d="M22147.75,6535.555c49-224,192-477,369-653c302-300,688-439,1226-438c201,0,307,10,470,43
		c460,93,813,357,1014,758c42,84,93,220,110,295l6,27h-1601h-1601L22147.75,6535.555z"/>
	<path class="st0" d="M9569.75,6385.555l-199-51l7-36c11-60,88-242,141-330c57-96,180-247,251-307c201-170,433-280,675-319
		c114-18,1043-22,1161-4c510,75,919,421,1078,909c15,47,25,86,21,87c-25,9-415,103-417,101c-1-2-10-28-20-58
		c-79-245-290-464-539-561c-144-56-206-61-734-57c-449,4-481,5-553,25c-290,81-530,302-627,575c-15,43-31,78-37,77
		C9772.75,6436.555,9678.75,6412.555,9569.75,6385.555z"/>
	<path class="st1" d="M9134.75,5043.555c-108-35-172-118-172-222c0-108,63-186,188-234c123-47,181-88,197-139c22-72-11-177-66-210
		c-94-58-227-27-288,67l-25,37l-13-50c-7-27-11-56-8-63s28-24,57-37c44-21,69-25,144-25c82,0,97,3,153,31c88,44,138,117,148,215
		c11,104-41,181-157,231c-193,84-224,109-235,187c-6,37-3,55,16,93c31,61,75,87,146,87c61,0,94-20,133-78l25-38l12,30
		c30,72,28,78-23,102C9307.75,5056.555,9196.75,5063.555,9134.75,5043.555z"/>
	<path class="st1" d="M10472.75,4915.555c-35-79-117-262-182-408c-66-146-126-280-134-297l-14-33h44c45,0,45,1,56,42
		c16,58,98,269,112,285c8,10,49,13,159,13c138,0,149-1,162-20c8-12,41-88,73-170l58-150h62h62l-66,148c-35,81-120,277-187,436
		c-66,160-126,291-132,293S10506.75,4993.555,10472.75,4915.555z M10583.75,4737.555c32-74,62-142,65-152c5-17-5-18-130-18
		c-75,0-136,3-136,8c-1,18,125,302,133,299C10520.75,4873.555,10550.75,4811.555,10583.75,4737.555z"/>
	<path class="st1" d="M13027.75,4925.555c-32-73-110-248-173-388s-125-279-138-307l-24-53h44h43l43,123c23,67,52,142,64,167l21,45
		h158h158l40-95c21-52,51-128,65-167l27-73h62h63l-45,103c-25,56-110,252-187,436c-78,184-146,336-152,338
		S13059.75,4998.555,13027.75,4925.555z M13133.75,4738.555c32-73,61-141,64-152c6-18,0-19-129-19c-75,0-136,3-136,8
		c0,19,126,301,134,299C13071.75,4872.555,13101.75,4811.555,13133.75,4738.555z"/>
	<path class="st1" d="M13651.75,4896.555c3-157-15-634-26-691c-5-27-4-28,38-28h44l-3,336c-2,194,1,334,6,332c11-4,395-414,527-563
		c53-60,101-111,105-113c4-1,10,179,14,400c3,222,9,418,12,436c6,32,6,32-32,32h-39l4-325c2-221,0-325-7-325c-11,0-194,192-476,498
		c-87,94-161,172-165,172C13650.75,5057.555,13649.75,4985.555,13651.75,4896.555z"/>
	<path class="st1" d="M18183.75,5035.555c-14-36-284-642-335-752c-25-54-46-100-46-102s19-4,43-4h43l22,68c12,37,39,112,60,167
		l39,100l156,3c153,2,156,2,170-20c12-20,106-252,121-300c4-15,17-18,69-18h64l-72,163c-58,131-206,480-289,680
		C18211.75,5062.555,18195.75,5067.555,18183.75,5035.555z M18240.75,4739.555c34-76,64-146,68-155c6-15-6-17-130-17
		c-88,0-136,4-136,11c0,17,123,299,130,299C18176.75,4877.555,18207.75,4815.555,18240.75,4739.555z"/>
	<path class="st1" d="M18755.75,4915.555c6-137-6-575-19-685l-6-53h42h42l-6,288c-4,158-3,309,1,337l8,49l206-219
		c114-121,254-274,313-340s111-121,115-123c5-1,11,185,13,415c3,230,9,426,13,436c6,14,1,17-33,17h-40l6-325c3-221,2-325-5-325
		c-13,0-161,154-433,448c-112,122-208,222-214,222C18753.75,5057.555,18751.75,5002.555,18755.75,4915.555z"/>
	<path class="st1" d="M19992.75,5044.555c-218-52-340-208-340-437c0-208,107-364,289-421c116-36,333-20,401,30c16,12,26,30,28,51
		c4,33,3,33-20,16c-43-31-125-66-181-76c-69-13-178,7-244,45c-92,54-143,164-151,324c-6,122,7,192,51,274c55,106,151,159,287,160
		c84,1,146-21,212-73c41-33,44-31,54,28l6,40l-68,22C20230.75,5054.555,20071.75,5062.555,19992.75,5044.555z"/>
	<path class="st1" d="M21805.75,5042.555c-129-28-237-113-295-232c-32-67-33-71-33-203s1-136,33-203c57-115,160-198,283-226
		c67-16,236-13,304,4c213,55,336,255,305,497c-17,141-101,262-224,325C22080.75,5054.555,21930.75,5069.555,21805.75,5042.555z
		 M22007.75,5006.555c163-30,247-130,276-325c22-143-20-302-100-384c-62-64-138-92-246-92c-137,0-234,51-289,152
		c-41,75-56,142-56,250c0,185,59,309,173,365C21851.75,5013.555,21917.75,5023.555,22007.75,5006.555z"/>
	<path class="st1" d="M22598.75,4675.555c-3-211-9-409-12-440l-6-58h40h41l-6,328c-4,228-3,331,5,335c10,7,281-277,522-545
		c62-71,117-128,122-128s7,125,6,278c-2,152,1,348,6,435l8,157h-37h-36l7-326c6-293,6-326-9-323c-16,4-98,89-431,449
		c-109,118-202,216-206,218C22608.75,5056.555,22602.75,4885.555,22598.75,4675.555z"/>
	<path class="st1" d="M7605.75,4608.555v-431h55h54l-7,205c-7,186-6,205,9,211c10,4,26,3,36-2c24-11,132-140,248-296l87-118h68h69
		l-49,58c-88,103-283,352-283,361c0,5,15,13,33,16c84,19,176,91,203,160c36,95,0,190-89,238c-39,20-58,22-238,25l-196,3V4608.555z
		 M7952.75,4971.555c52-30,80-78,80-136c0-132-99-205-265-196l-60,3l3,165c1,91,5,171,7,179
		C7725.75,5008.555,7908.75,4997.555,7952.75,4971.555z"/>
	<path class="st1" d="M8367.75,4607.555v-430h223h222v35c0,32-2,34-27,29c-16-3-91-6-168-7l-140-2v185v185l153-2l152-2v33v33l-155-5
		l-155-5v114c0,63,3,138,7,168l6,53l121-6c67-4,140-9,164-13l42-5v36v36h-222h-223V4607.555z"/>
	<path class="st1" d="M9542.75,5003.555v-35l129,6l130,6l7-28c4-15,5-196,2-401l-5-374h56h56l-3,402l-3,401l133-6l134-5v34v34h-318
		h-318V5003.555z"/>
	<path class="st1" d="M11044.75,4709.555l3-328l30-59c60-117,154-160,339-153c91,3,119,8,154,26c66,35,119,88,148,150
		c28,60,34,124,49,515l6,177h-38h-38l4-235c4-321-15-440-82-514c-86-93-309-96-400-5c-67,67-72,99-72,447v307h-53h-53
		L11044.75,4709.555z"/>
	<path class="st1" d="M12017.75,4608.555v-431h57h57l-2,208c-2,203-2,207,19,210c28,4,90-64,240-264l117-154h70h71l-35,38
		c-37,38-150,178-253,311l-56,74l63,21c76,26,128,63,164,118c22,32,27,51,27,102c0,78-26,125-92,164c-46,27-50,27-247,30l-200,3
		V4608.555z M12337.75,4986.555c58-16,102-65,110-123c21-139-86-232-257-224l-63,3v160c1,88,4,168,8,178c5,14,19,17,84,17
		C12262.75,4997.555,12315.75,4992.555,12337.75,4986.555z"/>
	<path class="st1" d="M14517.75,5003.555v-35l131,6l131,6l8-161c4-89,4-269,0-402l-8-240h57h57l-7,273c-4,149-3,330,1,401l7,129
		l128-6l128-5l4,34l4,34h-321h-320V5003.555z"/>
	<path class="st1" d="M15307.75,4607.555v-430h223h222v35c0,32-2,35-22,30c-13-3-88-7-168-8l-145-2l-3,189l-2,189l153-6l153-6l-4,33
		l-4,33l-149-5l-150-5l3,164l3,164l100-2c55-1,128-4,163-8l62-6v36v35h-217h-218V4607.555z"/>
	<path class="st1" d="M16287.75,4607.555v-430h223h222v35c0,32-2,35-22,30c-13-3-88-7-168-8l-145-2l-3,189l-2,189l150-6l150-6v33v33
		l-150-5l-151-5l3,164l3,164l100-2c55-1,128-4,163-8l62-6v36v35h-217h-218V4607.555z"/>
	<path class="st1" d="M17267.75,4607.555v-430h226h225v34v35l-65-7c-37-3-113-7-171-7h-105v403v402h-55h-55V4607.555z"/>
	<path class="st1" d="M20557.75,4607.555v-430h55h55l-3,220l-4,220l264-2l263-3l-3-217l-2-218h57h58v430v430h-58h-58l3-182l3-183
		l-263-3l-264-2l4,185l3,185h-55h-55V4607.555z"/>
	<path class="st1" d="M23567.75,4607.555v-430h220h220l1,36c0,31-2,35-20,30c-12-3-87-9-167-12l-146-7l-6,69c-9,89-9,242,0,284l6,33
		l149-6l148-7v34v33l-148-5l-149-5l-7,68c-4,37-4,112,0,167l7,100l121-6c67-4,140-9,164-13l42-5v36v36h-218h-217V4607.555z"/>
	<path class="st1" d="M24102.75,5003.555v-34l133,2l132,1v-398v-397h55h55v397v398l133-1l132-2v34v34h-320h-320V5003.555z"/>
	<path class="st1" d="M24896.75,4607.555v-430h217h217l4,36c4,32,2,35-16,30c-12-3-87-9-167-12l-146-7l-6,48c-10,70-8,308,2,324
		c8,12,35,13,155,8l146-7v33v34l-149-5l-149-5l-7,53c-4,29-4,104,0,168l7,114l122-6c66-4,140-9,164-13l42-5v36v36h-218h-218
		V4607.555z"/>
	<path class="st1" d="M11452.75,3770.555c-1034-37-2118-236-3158-578c-231-76-619-218-633-232c-8-8,134-246,150-251
		c6-2,124,39,263,91c1121,419,2155,651,3308,744c274,22,1142,25,1410,5c974-73,1881-238,3285-597c1842-472,2381-597,3070-715
		c566-97,1049-154,1543-181c280-15,1069-6,1329,15c847,69,1603,210,2413,450c350,103,860,281,860,299c0,5-35,65-77,132
		c-74,119-78,123-102,113c-975-377-2017-638-2986-747c-1189-134-2291-72-3680,209c-428,87-766,165-1380,321
		c-1544,391-1877,474-2190,543c-1020,225-1800,339-2585,376C12100.75,3776.555,11655.75,3778.555,11452.75,3770.555z"/>
</g>
</svg>
