<?xml version="1.0" standalone="no"?>
<!DOCTYPE svg PUBLIC "-//W3C//DTD SVG 20010904//EN"
 "http://www.w3.org/TR/2001/REC-SVG-20010904/DTD/svg10.dtd">
<svg version="1.0" xmlns="http://www.w3.org/2000/svg"
 width="1815.000000pt" height="789.000000pt" viewBox="0 0 1815.000000 789.000000"
 preserveAspectRatio="xMidYMid meet">

<g transform="translate(0.000000,789.000000) scale(0.100000,-0.100000)"
fill="#000000" stroke="none">
<path d="M3585 7769 c-92 -9 -215 -50 -295 -96 -98 -57 -217 -181 -267 -278
-104 -202 -126 -448 -57 -654 42 -127 98 -215 209 -326 120 -121 211 -185 387
-271 340 -165 449 -234 598 -384 194 -194 272 -389 249 -620 -20 -204 -86
-340 -232 -476 -174 -162 -411 -245 -661 -231 -56 3 -128 13 -161 22 -187 49
-345 195 -405 375 -45 133 -34 300 27 412 32 59 123 147 183 178 242 124 515
-3 537 -249 14 -149 -89 -273 -226 -275 l-57 -1 -31 -115 c-17 -63 -30 -116
-28 -118 10 -11 159 -13 208 -3 228 48 377 240 377 486 0 254 -154 463 -399
542 -76 24 -245 28 -333 9 -148 -33 -300 -127 -384 -239 -98 -130 -134 -238
-141 -417 -6 -141 7 -223 53 -336 105 -264 315 -434 609 -495 101 -21 309 -25
412 -9 369 60 686 290 814 591 62 145 82 247 83 419 0 131 -4 168 -23 240 -96
360 -385 649 -866 867 -461 209 -652 478 -580 816 20 93 68 181 140 252 99 98
211 145 346 145 187 0 340 -116 385 -289 29 -116 4 -212 -77 -293 -45 -45 -68
-60 -114 -73 -35 -11 -72 -15 -95 -11 l-38 6 -31 -116 c-18 -64 -30 -118 -28
-121 3 -2 39 -7 81 -10 259 -20 481 143 541 398 76 325 -132 661 -455 733 -89
19 -172 24 -255 15z"/>
<path d="M13822 7456 c-54 -125 -128 -172 -256 -164 -63 4 -91 13 -197 62
-270 126 -283 130 -394 131 -95 0 -105 -2 -169 -34 -136 -67 -238 -206 -280
-383 l-6 -28 63 0 64 0 39 77 c46 92 75 113 168 120 84 7 141 -11 324 -100
173 -85 237 -102 357 -94 105 6 170 35 253 112 87 81 132 165 179 338 4 15 -3
17 -59 17 l-63 0 -23 -54z"/>
<path d="M16050 6819 c-639 -82 -1105 -443 -1286 -997 -19 -58 -33 -106 -31
-108 2 -2 722 -3 1600 -2 l1596 3 -39 116 c-47 141 -88 225 -171 350 -127 189
-309 350 -518 458 -187 95 -355 146 -579 176 -122 16 -459 19 -572 4z"/>
<path d="M13221 6758 c-69 -179 -1078 -2439 -1299 -2910 -78 -166 -90 -148 95
-148 l158 0 53 168 c58 180 201 569 306 827 59 147 66 161 93 166 15 4 255 7
533 7 278 0 518 -3 533 -7 27 -6 36 -25 154 -311 149 -364 249 -620 292 -752
l33 -98 229 0 c126 0 229 2 229 5 0 3 -22 49 -49 103 -121 242 -700 1592
-1154 2692 l-114 275 -41 3 c-36 3 -43 0 -51 -20z m193 -1133 c130 -296 236
-544 236 -551 0 -17 -377 -27 -696 -18 -238 6 -265 9 -261 23 13 51 472 1100
478 1094 4 -5 113 -251 243 -548z"/>
<path d="M180 6689 c0 -19 7 -182 15 -364 20 -450 20 -1800 0 -2240 -8 -176
-15 -336 -15 -355 l0 -35 792 3 793 2 0 120 0 120 -25 -4 c-143 -29 -449 -46
-835 -49 l-320 -2 -8 84 c-4 46 -6 338 -5 650 l3 566 335 -2 c311 -3 619 -16
699 -30 l34 -6 -7 79 c-3 44 -2 103 3 133 l8 54 -96 -7 c-302 -20 -493 -27
-721 -29 l-255 -2 -3 355 c-3 328 10 776 23 789 9 8 585 -17 879 -39 148 -11
270 -19 271 -18 1 2 -1 32 -5 68 -4 36 -4 92 0 125 4 33 6 61 5 63 -1 1 -128
-3 -281 -9 -271 -11 -1001 -7 -1196 7 l-88 7 0 -34z"/>
<path d="M5048 6688 c9 -43 9 -164 0 -207 l-8 -33 53 6 c191 23 872 54 886 41
12 -13 22 -850 17 -1500 -4 -614 -12 -922 -31 -1207 l-6 -88 216 0 216 0 -6
93 c-19 293 -26 593 -31 1187 -5 624 5 1502 18 1515 13 13 695 -19 885 -41
l53 -6 -8 33 c-9 45 -9 154 1 202 l8 37 -283 -7 c-364 -10 -1341 -10 -1705 0
l-283 7 8 -32z"/>
<path d="M7705 6692 c30 -187 42 -2022 17 -2627 -7 -176 -15 -330 -18 -342
l-4 -23 792 0 793 0 1 120 0 121 -25 -6 c-135 -28 -449 -46 -836 -48 l-320 -2
-3 654 -2 654 352 -7 c331 -7 597 -19 678 -31 l35 -6 0 131 c0 123 -1 130 -20
130 -11 0 -130 -7 -265 -15 -135 -8 -364 -16 -510 -18 l-265 -2 1 563 c0 420
3 565 12 574 18 18 575 -6 1077 -47 l70 -5 0 130 0 130 -185 -8 c-240 -9 -930
-9 -1182 0 l-197 8 4 -28z"/>
<path d="M9500 6710 c0 -5 61 -157 136 -337 356 -859 706 -1721 1053 -2598
l27 -70 148 0 148 0 33 85 c361 918 694 1717 1081 2590 80 182 145 333 143
335 -2 2 -29 -1 -59 -7 -51 -10 -190 -5 -235 7 -18 5 -27 -15 -94 -207 -86
-250 -379 -1041 -523 -1413 -100 -258 -364 -899 -392 -952 l-14 -28 -22 50
c-100 229 -477 1171 -631 1574 -86 224 -233 629 -315 869 l-39 112 -60 -7
c-75 -10 -263 -10 -332 -1 -31 4 -53 3 -53 -2z"/>
<path d="M14703 5513 c-10 -35 -10 -492 -1 -515 7 -17 94 -18 1627 -18 l1620
0 8 38 c10 48 10 436 0 485 l-8 37 -1619 0 -1620 0 -7 -27z"/>
<path d="M14735 4788 c49 -224 192 -477 369 -653 302 -300 688 -439 1226 -438
201 0 307 10 470 43 460 93 813 357 1014 758 42 84 93 220 110 295 l6 27
-1601 0 -1601 0 7 -32z"/>
<path d="M2157 4638 l-199 -51 7 -36 c11 -60 88 -242 141 -330 57 -96 180
-247 251 -307 201 -170 433 -280 675 -319 114 -18 1043 -22 1161 -4 510 75
919 421 1078 909 15 47 25 86 21 87 -25 9 -415 103 -417 101 -1 -2 -10 -28
-20 -58 -79 -245 -290 -464 -539 -561 -144 -56 -206 -61 -734 -57 -449 4 -481
5 -553 25 -290 81 -530 302 -627 575 -15 43 -31 78 -37 77 -5 0 -99 -24 -208
-51z"/>
<path d="M1722 3296 c-108 -35 -172 -118 -172 -222 0 -108 63 -186 188 -234
123 -47 181 -88 197 -139 22 -72 -11 -177 -66 -210 -94 -58 -227 -27 -288 67
l-25 37 -13 -50 c-7 -27 -11 -56 -8 -63 3 -7 28 -24 57 -37 44 -21 69 -25 144
-25 82 0 97 3 153 31 88 44 138 117 148 215 11 104 -41 181 -157 231 -193 84
-224 109 -235 187 -6 37 -3 55 16 93 31 61 75 87 146 87 61 0 94 -20 133 -78
l25 -38 12 30 c30 72 28 78 -23 102 -59 29 -170 36 -232 16z"/>
<path d="M3060 3168 c-35 -79 -117 -262 -182 -408 -66 -146 -126 -280 -134
-297 l-14 -33 44 0 c45 0 45 1 56 42 16 58 98 269 112 285 8 10 49 13 159 13
138 0 149 -1 162 -20 8 -12 41 -88 73 -170 l58 -150 62 0 62 0 -66 148 c-35
81 -120 277 -187 436 -66 160 -126 291 -132 293 -6 2 -39 -61 -73 -139z m111
-178 c32 -74 62 -142 65 -152 5 -17 -5 -18 -130 -18 -75 0 -136 3 -136 8 -1
18 125 302 133 299 5 -1 35 -63 68 -137z"/>
<path d="M5615 3178 c-32 -73 -110 -248 -173 -388 -63 -140 -125 -279 -138
-307 l-24 -53 44 0 43 0 43 123 c23 67 52 142 64 167 l21 45 158 0 158 0 40
-95 c21 -52 51 -128 65 -167 l27 -73 62 0 63 0 -45 103 c-25 56 -110 252 -187
436 -78 184 -146 336 -152 338 -6 2 -37 -56 -69 -129z m106 -187 c32 -73 61
-141 64 -152 6 -18 0 -19 -129 -19 -75 0 -136 3 -136 8 0 19 126 301 134 299
5 -2 35 -63 67 -136z"/>
<path d="M6239 3149 c3 -157 -15 -634 -26 -691 -5 -27 -4 -28 38 -28 l44 0 -3
336 c-2 194 1 334 6 332 11 -4 395 -414 527 -563 53 -60 101 -111 105 -113 4
-1 10 179 14 400 3 222 9 418 12 436 6 32 6 32 -32 32 l-39 0 4 -325 c2 -221
0 -325 -7 -325 -11 0 -194 192 -476 498 -87 94 -161 172 -165 172 -3 0 -4 -72
-2 -161z"/>
<path d="M10771 3288 c-14 -36 -284 -642 -335 -752 -25 -54 -46 -100 -46 -102
0 -2 19 -4 43 -4 l43 0 22 68 c12 37 39 112 60 167 l39 100 156 3 c153 2 156
2 170 -20 12 -20 106 -252 121 -300 4 -15 17 -18 69 -18 l64 0 -72 163 c-58
131 -206 480 -289 680 -17 42 -33 47 -45 15z m57 -296 c34 -76 64 -146 68
-155 6 -15 -6 -17 -130 -17 -88 0 -136 4 -136 11 0 17 123 299 130 299 4 0 35
-62 68 -138z"/>
<path d="M11343 3168 c6 -137 -6 -575 -19 -685 l-6 -53 42 0 42 0 -6 288 c-4
158 -3 309 1 337 l8 49 206 -219 c114 -121 254 -274 313 -340 59 -66 111 -121
115 -123 5 -1 11 185 13 415 3 230 9 426 13 436 6 14 1 17 -33 17 l-40 0 6
-325 c3 -221 2 -325 -5 -325 -13 0 -161 154 -433 448 -112 122 -208 222 -214
222 -5 0 -7 -55 -3 -142z"/>
<path d="M12580 3297 c-218 -52 -340 -208 -340 -437 0 -208 107 -364 289 -421
116 -36 333 -20 401 30 16 12 26 30 28 51 4 33 3 33 -20 16 -43 -31 -125 -66
-181 -76 -69 -13 -178 7 -244 45 -92 54 -143 164 -151 324 -6 122 7 192 51
274 55 106 151 159 287 160 84 1 146 -21 212 -73 41 -33 44 -31 54 28 l6 40
-68 22 c-86 27 -245 35 -324 17z"/>
<path d="M14393 3295 c-129 -28 -237 -113 -295 -232 -32 -67 -33 -71 -33 -203
0 -132 1 -136 33 -203 57 -115 160 -198 283 -226 67 -16 236 -13 304 4 213 55
336 255 305 497 -17 141 -101 262 -224 325 -98 50 -248 65 -373 38z m202 -36
c163 -30 247 -130 276 -325 22 -143 -20 -302 -100 -384 -62 -64 -138 -92 -246
-92 -137 0 -234 51 -289 152 -41 75 -56 142 -56 250 0 185 59 309 173 365 86
41 152 51 242 34z"/>
<path d="M15186 2928 c-3 -211 -9 -409 -12 -440 l-6 -58 40 0 41 0 -6 328 c-4
228 -3 331 5 335 10 7 281 -277 522 -545 62 -71 117 -128 122 -128 5 0 7 125
6 278 -2 152 1 348 6 435 l8 157 -37 0 -36 0 7 -326 c6 -293 6 -326 -9 -323
-16 4 -98 89 -431 449 -109 118 -202 216 -206 218 -4 1 -10 -170 -14 -380z"/>
<path d="M193 2861 l0 -431 55 0 54 0 -7 205 c-7 186 -6 205 9 211 10 4 26 3
36 -2 24 -11 132 -140 248 -296 l87 -118 68 0 69 0 -49 58 c-88 103 -283 352
-283 361 0 5 15 13 33 16 84 19 176 91 203 160 36 95 0 190 -89 238 -39 20
-58 22 -238 25 l-196 3 0 -430z m347 363 c52 -30 80 -78 80 -136 0 -132 -99
-205 -265 -196 l-60 3 3 165 c1 91 5 171 7 179 8 22 191 11 235 -15z"/>
<path d="M955 2860 l0 -430 223 0 222 0 0 35 c0 32 -2 34 -27 29 -16 -3 -91
-6 -168 -7 l-140 -2 0 185 0 185 153 -2 152 -2 0 33 0 33 -155 -5 -155 -5 0
114 c0 63 3 138 7 168 l6 53 121 -6 c67 -4 140 -9 164 -13 l42 -5 0 36 0 36
-222 0 -223 0 0 -430z"/>
<path d="M2130 3256 l0 -35 129 6 130 6 7 -28 c4 -15 5 -196 2 -401 l-5 -374
56 0 56 0 -3 402 -3 401 133 -6 134 -5 0 34 0 34 -318 0 -318 0 0 -34z"/>
<path d="M3632 2962 l3 -328 30 -59 c60 -117 154 -160 339 -153 91 3 119 8
154 26 66 35 119 88 148 150 28 60 34 124 49 515 l6 177 -38 0 -38 0 4 -235
c4 -321 -15 -440 -82 -514 -86 -93 -309 -96 -400 -5 -67 67 -72 99 -72 447 l0
307 -53 0 -53 0 3 -328z"/>
<path d="M4605 2861 l0 -431 57 0 57 0 -2 208 c-2 203 -2 207 19 210 28 4 90
-64 240 -264 l117 -154 70 0 71 0 -35 38 c-37 38 -150 178 -253 311 l-56 74
63 21 c76 26 128 63 164 118 22 32 27 51 27 102 0 78 -26 125 -92 164 -46 27
-50 27 -247 30 l-200 3 0 -430z m320 378 c58 -16 102 -65 110 -123 21 -139
-86 -232 -257 -224 l-63 3 0 160 c1 88 4 168 8 178 5 14 19 17 84 17 43 0 96
-5 118 -11z"/>
<path d="M7105 3256 l0 -35 131 6 131 6 8 -161 c4 -89 4 -269 0 -402 l-8 -240
57 0 57 0 -7 273 c-4 149 -3 330 1 401 l7 129 128 -6 128 -5 4 34 4 34 -321 0
-320 0 0 -34z"/>
<path d="M7895 2860 l0 -430 223 0 222 0 0 35 c0 32 -2 35 -22 30 -13 -3 -88
-7 -168 -8 l-145 -2 -3 189 -2 189 153 -6 153 -6 -4 33 -4 33 -149 -5 -150 -5
3 164 3 164 100 -2 c55 -1 128 -4 163 -8 l62 -6 0 36 0 35 -217 0 -218 0 0
-430z"/>
<path d="M8875 2860 l0 -430 223 0 222 0 0 35 c0 32 -2 35 -22 30 -13 -3 -88
-7 -168 -8 l-145 -2 -3 189 -2 189 150 -6 150 -6 0 33 0 33 -150 -5 -151 -5 3
164 3 164 100 -2 c55 -1 128 -4 163 -8 l62 -6 0 36 0 35 -217 0 -218 0 0 -430z"/>
<path d="M9855 2860 l0 -430 226 0 225 0 0 34 0 35 -65 -7 c-37 -3 -113 -7
-171 -7 l-105 0 0 403 0 402 -55 0 -55 0 0 -430z"/>
<path d="M13145 2860 l0 -430 55 0 55 0 -3 220 -4 220 264 -2 263 -3 -3 -217
-2 -218 57 0 58 0 0 430 0 430 -58 0 -58 0 3 -182 3 -183 -263 -3 -264 -2 4
185 3 185 -55 0 -55 0 0 -430z"/>
<path d="M16155 2860 l0 -430 220 0 220 0 1 36 c0 31 -2 35 -20 30 -12 -3 -87
-9 -167 -12 l-146 -7 -6 69 c-9 89 -9 242 0 284 l6 33 149 -6 148 -7 0 34 0
33 -148 -5 -149 -5 -7 68 c-4 37 -4 112 0 167 l7 100 121 -6 c67 -4 140 -9
164 -13 l42 -5 0 36 0 36 -218 0 -217 0 0 -430z"/>
<path d="M16690 3256 l0 -34 133 2 132 1 0 -398 0 -397 55 0 55 0 0 397 0 398
133 -1 132 -2 0 34 0 34 -320 0 -320 0 0 -34z"/>
<path d="M17484 2860 l0 -430 217 0 217 0 4 36 c4 32 2 35 -16 30 -12 -3 -87
-9 -167 -12 l-146 -7 -6 48 c-10 70 -8 308 2 324 8 12 35 13 155 8 l146 -7 0
33 0 34 -149 -5 -149 -5 -7 53 c-4 29 -4 104 0 168 l7 114 122 -6 c66 -4 140
-9 164 -13 l42 -5 0 36 0 36 -218 0 -218 0 0 -430z"/>
<path d="M4040 2023 c-1034 -37 -2118 -236 -3158 -578 -231 -76 -619 -218
-633 -232 -8 -8 134 -246 150 -251 6 -2 124 39 263 91 1121 419 2155 651 3308
744 274 22 1142 25 1410 5 974 -73 1881 -238 3285 -597 1842 -472 2381 -597
3070 -715 566 -97 1049 -154 1543 -181 280 -15 1069 -6 1329 15 847 69 1603
210 2413 450 350 103 860 281 860 299 0 5 -35 65 -77 132 -74 119 -78 123
-102 113 -975 -377 -2017 -638 -2986 -747 -1189 -134 -2291 -72 -3680 209
-428 87 -766 165 -1380 321 -1544 391 -1877 474 -2190 543 -1020 225 -1800
339 -2585 376 -192 9 -637 11 -840 3z"/>
</g>
</svg>
